<?xml version="1.0" encoding="utf-8"?>
<svg version="1.1" id="Ebene_1" xmlns="http://www.w3.org/2000/svg" xmlns:xlink="http://www.w3.org/1999/xlink" x="0px" y="0px"
	 viewBox="0 0 298 49.91" style="enable-background:new 0 0 298 49.91;" xml:space="preserve">
<style type="text/css">
	.st0{fill:#80A9CF;}
	.st1{fill:#00549F;}
	.st2{fill:#646567;}
	.st3{fill:#FFED00;}
</style>
<g>
	<g>
		<g>
			<path class="st0" d="M232.61,48.8h4.67v-9.79h2.5c1.88,0,2.69,1.1,2.76,2.92l0.13,4.44c0.03,0.91,0.13,1.78,0.58,2.43h5.06v-0.19
				c-0.87-0.46-1-1.72-1.04-4.15c-0.06-4.9-0.55-6.65-3.73-7.07v-0.06c2.63-0.55,3.86-2.63,3.86-5.71c0-3.96-2.33-5.97-6.16-5.97
				h-8.62V48.8z M237.28,29.09h2.2c2.11,0,3.24,1.07,3.24,3.21c0,2.5-1.26,3.47-3.5,3.47h-1.95V29.09z"/>
			<path class="st0" d="M163.77,25.65V41.8c0,6.19,3.6,7.46,7.39,7.46c3.79,0,7.39-1.56,7.39-7.46V25.65h-4.67V41.8
				c0,2.3-0.55,4.02-2.72,4.02c-2.17,0-2.72-1.72-2.72-4.02V25.65H163.77z"/>
			<polygon class="st0" points="179.7,25.65 179.7,48.8 183.98,48.8 183.98,32.59 184.04,32.59 189.75,48.8 195.07,48.8 
				195.07,25.65 190.79,25.65 190.79,41.51 190.72,41.51 185.08,25.65 			"/>
			<rect x="196.27" y="25.65" class="st0" width="4.67" height="23.15"/>
			<polygon class="st0" points="201.26,25.65 206.57,48.8 212.57,48.8 217.89,25.65 213.06,25.65 209.62,42.77 209.53,42.77 
				206.25,25.65 			"/>
			<polygon class="st0" points="218.31,25.65 218.31,48.8 231.57,48.8 231.57,44.98 222.98,44.98 222.98,38.75 230.76,38.75 
				230.76,34.93 222.98,34.93 222.98,29.48 231.25,29.48 231.25,25.65 			"/>
			<path class="st0" d="M247.79,41.57v0.94c0,4.28,2.07,6.75,7.36,6.75c5.06,0,8.04-2.21,8.04-7.1c0-2.82-0.91-4.6-4.41-6.13
				l-3.6-1.56c-1.98-0.84-2.4-1.72-2.4-3.15c0-1.36,0.55-2.69,2.66-2.69c1.78,0,2.53,1.27,2.53,3.44h4.47v-0.65
				c0-4.44-3.02-6.22-7.17-6.22c-4.41,0-7.17,2.3-7.17,6.81c0,3.86,1.91,5.58,6.06,7c3.08,1.07,4.15,1.85,4.15,3.96
				c0,1.94-1.36,2.85-2.79,2.85c-2.47,0-3.08-1.39-3.08-3.57v-0.68H247.79z"/>
			<rect x="263.8" y="25.65" class="st0" width="4.67" height="23.15"/>
			<polygon class="st0" points="292.72,25.65 289.48,34.6 289.41,34.6 286.36,25.65 269.08,25.65 269.08,29.48 274.14,29.48 
				274.14,48.8 278.81,48.8 278.81,29.48 282.74,29.48 287.11,39.69 287.11,48.8 291.78,48.8 291.78,39.69 297.78,25.65 			"/>
		</g>
		<g>
			<path class="st1" d="M122.75,23.55h-7.74V0.29h12.69c3.44,0,6.41,2.23,7.38,5.18c0.9,2.74,0.13,5.71-1.89,7.82
				c0.27,0.73,0.53,1.3,0.78,1.95c0.56,1.29,1.08,2.59,1.64,3.87l1.84,4.43h-7.85c0,0-0.06-0.19-0.12-0.27
				c-0.31-0.68-0.59-1.42-0.91-2.1l-1.89-4.48c-0.75-1.81-1.5-3.52-2.25-5.33c0.93-0.03,1.63,0.15,2.53-0.27
				c0.63-0.31,1.6-1.09,1.62-2.57c-0.02-0.73-0.23-1.29-0.72-1.87c-0.49-0.54-1.2-0.94-2.12-0.95c0,0-3.01,0-3.01,0V23.55z"/>
			<path class="st1" d="M203.56,0.29v23.26h-7.74v-9.48h-5.42v9.48c-1.4,0-2.92-0.02-4.32,0h-3.42V5.67h-5.41v17.87h-7.74V5.67
				h-5.46v17.87h-7.97c-1.39-3.35-2.85-6.74-4.21-10.08c-0.16-0.7-0.31-1.4-0.52-2.09v12.17h-7.99c-1.58-3.68-3.1-7.29-4.68-11.02
				c-0.55-1.29-1-2.35-1.56-3.69l-0.08-0.18l-1.23-2.88l-1.76-4.12c-0.15-0.47-0.4-0.89-0.56-1.36h7.97
				c1.64,3.98,3.29,7.91,5.01,11.82l0.05,0.09c-0.06-0.45-0.2-1.03-0.28-1.47V3.8c0.01-1.11,0-2.37,0-3.51h7.99
				c0.1,0.25,0.16,0.39,0.23,0.59c0.94,2.2,1.83,4.38,2.76,6.57l2.09,4.76c-0.05-0.5-0.16-0.98-0.22-1.47V0.29h31.3v8.39h5.42V0.29
				h4.04H203.56z"/>
		</g>
		<g>
			<path class="st0" d="M226.01,14.78l2.25-10.46h0.06l2.25,10.46 M210.5,14.78l2.25-10.46h0.06l2.25,10.46H210.5z M231.19,0.29
				h-5.8l-4.85,18.33l-4.85-18.33h-5.8l-6.16,23.26h4.89l1.07-4.92h6.19l1.07,4.92h7.17l1.08-4.92h6.19l1.07,4.92h4.89L231.19,0.29z
				"/>
			<path class="st0" d="M251.31,8.23c0-3.37-0.49-8.27-7.17-8.27c-7,0-7.88,4.99-7.88,12.03c0,7.04,0.88,12.03,7.88,12.03
				c6.13,0,7.36-4.31,7.36-9.31h-4.67c0,5-1.23,5.87-2.92,5.87c-2.01,0-2.98-1.27-2.98-8.27c0-6.55,0.55-8.92,2.92-8.92
				c2.11,0,2.79,1.46,2.79,4.83H251.31z"/>
			<polygon class="st0" points="252.43,23.55 257.12,23.55 257.12,13.22 262.59,13.22 262.59,23.55 267.28,23.55 267.28,0.29 
				262.59,0.29 262.59,9.18 257.12,9.18 257.12,0.29 252.43,0.29 			"/>
			<polygon class="st0" points="268.3,0.29 268.3,23.55 281.62,23.55 281.62,19.7 272.99,19.7 272.99,13.45 280.81,13.45 
				280.81,9.6 272.99,9.6 272.99,4.13 281.3,4.13 281.3,0.29 			"/>
			<polygon class="st0" points="282.32,0.29 282.32,23.55 286.62,23.55 286.62,7.26 286.68,7.26 292.42,23.55 297.76,23.55 
				297.76,0.29 293.46,0.29 293.46,16.22 293.39,16.22 287.73,0.29 			"/>
		</g>
	</g>
	<rect x="99" y="0.26" class="st1" width="1.42" height="48.74"/>
	<path class="st2" d="M65.88,19.31c0.32,0,0.63,0.02,0.94,0.03c-1.6,0.08-2.91,0.46-3.91,1.19c-1.11,0.82-1.76,2.18-1.94,4.09h-1.5
		c0.18-1.91,0.83-3.27,1.94-4.09C62.53,19.71,64.02,19.31,65.88,19.31z M64.32,43.49c0.27,0,0.5-0.02,0.75-0.03
		c-0.51-0.03-1.01-0.08-1.5-0.17c-0.73-0.14-1.36-0.38-1.91-0.72c-0.54-0.34-0.98-0.79-1.29-1.36c-0.32-0.57-0.48-1.31-0.48-2.21
		l0.48-2.21c0.32-0.61,0.74-1.11,1.26-1.5c0.52-0.38,1.13-0.69,1.81-0.92c0.68-0.23,1.41-0.41,2.18-0.55
		c0.73-0.13,1.49-0.25,2.28-0.34c0.79-0.09,1.54-0.2,2.25-0.34c0.7-0.14,1.36-0.31,1.97-0.51c0.01,0,0.02-0.01,0.04-0.02v-0.84
		c-0.41,0.36-0.92,0.65-1.53,0.85c-0.61,0.2-1.27,0.37-1.98,0.51c-0.7,0.14-1.45,0.25-2.25,0.34c-0.8,0.09-1.56,0.21-2.28,0.34
		c-0.77,0.14-1.5,0.32-2.18,0.55c-0.68,0.23-1.28,0.53-1.81,0.92c-0.52,0.39-0.94,0.89-1.26,1.5c-0.32,0.61-0.48,1.35-0.48,2.21
		c0,0.91,0.16,1.65,0.48,2.21c0.32,0.57,0.75,1.02,1.29,1.36c0.54,0.34,1.18,0.58,1.91,0.72C62.8,43.42,63.55,43.49,64.32,43.49z
		 M83.59,45.73c-0.18-1.45-0.27-2.97-0.27-4.56V22.85c0-2.09-0.48-3.79-1.43-5.11c-0.95-1.32-2.18-2.34-3.68-3.06
		c-1.5-0.73-3.16-1.22-4.97-1.46c-1.82-0.25-3.61-0.37-5.38-0.37c-0.3,0-0.59,0.01-0.88,0.02c1.57,0.03,3.16,0.13,4.77,0.35
		c1.82,0.25,3.47,0.74,4.97,1.46c1.5,0.73,2.73,1.75,3.68,3.06c0.95,1.32,1.43,3.02,1.43,5.11v18.32c0,1.59,0.09,3.11,0.27,4.56
		c0.18,1.45,0.5,2.54,0.95,3.27h1.5C84.09,48.28,83.77,47.19,83.59,45.73z M72.56,45.6c-1.54,1.59-3.36,2.71-5.45,3.37
		c-1.87,0.59-3.77,0.9-5.71,0.96c0.27,0.01,0.53,0.03,0.8,0.03c2.18,0,4.31-0.33,6.4-0.99c1.52-0.48,2.89-1.21,4.11-2.18
		C72.66,46.4,72.59,46,72.56,45.6z"/>
	<g>
		<path class="st2" d="M23.65,26.46V0.37h1.5V24.9L23.65,26.46z M27.4,33.27l-3.75,3.61V49h1.5V36.88l2.81-2.7L27.4,33.27z
			 M35.51,26.73l13.28-12.94h-1.5L34.01,26.73L48.79,49h1.5L35.51,26.73z"/>
		<path class="st2" d="M9.89,13.79h1.5V49h-1.5V13.79z M9.89,0.37v7.97h1.5V0.37H9.89z"/>
		<g>
			<path class="st3" d="M9.89,8.34H0.22V0.37h9.67V8.34z M0.22,13.79h9.67V49H0.22V13.79z"/>
			<path class="st3" d="M13.98,0.37h9.67v26.09l12.19-12.67h11.44L34.01,26.73L48.79,49H37.07L27.4,33.27l-3.75,3.61V49h-9.67V0.37z
				"/>
			<path class="st3" d="M49.81,24.62c0.14-2.27,0.7-4.16,1.7-5.65c1-1.5,2.27-2.7,3.81-3.61c1.54-0.91,3.27-1.55,5.18-1.94
				c1.91-0.38,3.86-0.58,5.86-0.58c1.77,0,3.56,0.12,5.38,0.37c1.82,0.25,3.47,0.74,4.97,1.46c1.5,0.73,2.73,1.75,3.68,3.06
				c0.95,1.32,1.43,3.02,1.43,5.11v18.32c0,1.59,0.09,3.11,0.27,4.56c0.18,1.45,0.5,2.54,0.95,3.27h-9.81
				c-0.18-0.55-0.33-1.1-0.44-1.67c-0.11-0.57-0.19-1.15-0.24-1.74c-1.54,1.59-3.36,2.71-5.45,3.37c-2.09,0.66-4.22,0.99-6.4,0.99
				c-1.68,0-3.25-0.22-4.7-0.65c-1.45-0.43-2.72-1.08-3.81-1.94c-1.09-0.86-1.94-1.95-2.55-3.27c-0.61-1.32-0.92-2.88-0.92-4.7
				c0-2,0.34-3.65,1.02-4.94c0.68-1.3,1.59-2.33,2.73-3.1c1.13-0.77,2.42-1.35,3.85-1.74c1.43-0.39,2.9-0.69,4.39-0.92
				c1.5-0.23,2.93-0.41,4.29-0.54c1.36-0.14,2.58-0.34,3.64-0.61c1.07-0.27,1.92-0.67,2.55-1.19c0.64-0.52,0.95-1.28,0.95-2.28
				c0-1.04-0.17-1.87-0.51-2.48c-0.34-0.61-0.8-1.09-1.36-1.43c-0.57-0.34-1.23-0.57-1.97-0.68c-0.75-0.11-1.55-0.17-2.42-0.17
				c-1.86,0-3.35,0.41-4.46,1.23c-1.11,0.82-1.76,2.18-1.94,4.09H49.81z M72.15,31.77c-0.41,0.36-0.92,0.65-1.53,0.85
				c-0.61,0.2-1.27,0.37-1.98,0.51c-0.7,0.14-1.45,0.25-2.25,0.34c-0.8,0.09-1.56,0.21-2.28,0.34c-0.77,0.14-1.5,0.32-2.18,0.55
				c-0.68,0.23-1.28,0.53-1.81,0.92c-0.52,0.39-0.94,0.89-1.26,1.5c-0.32,0.61-0.48,1.35-0.48,2.21c0,0.91,0.16,1.65,0.48,2.21
				c0.32,0.57,0.75,1.02,1.29,1.36c0.54,0.34,1.18,0.58,1.91,0.72c0.73,0.14,1.48,0.2,2.25,0.2c1.91,0,3.38-0.32,4.43-0.95
				c1.04-0.64,1.82-1.4,2.32-2.28c0.5-0.89,0.81-1.78,0.92-2.69c0.11-0.91,0.17-1.63,0.17-2.18V31.77z"/>
		</g>
	</g>
</g>
</svg>